<mxfile host="app.diagrams.net" agent="Mozilla/5.0 (Windows NT 10.0; Win64; x64; rv:133.0) Gecko/20100101 Firefox/133.0" version="25.0.1">
  <diagram id="oRHZXf_7kzQQBno32S_X" name="Page-1">
    <mxGraphModel dx="792" dy="1141" grid="1" gridSize="10" guides="1" tooltips="1" connect="1" arrows="1" fold="1" page="1" pageScale="1" pageWidth="850" pageHeight="1100" background="#ffffff" math="0" shadow="0">
      <root>
        <mxCell id="0" />
        <mxCell id="W3TFd2X2cm_PyBwLdbxR-7" value="Background" style="" parent="0" visible="0" />
        <mxCell id="4BHLoPZqxFKhShOrZBmn-14" value="Box Arrangement" parent="0" />
        <mxCell id="4BHLoPZqxFKhShOrZBmn-17" value="One of:" style="swimlane;whiteSpace=wrap;html=1;rounded=1;glass=0;swimlaneFillColor=default;movable=1;resizable=1;rotatable=1;deletable=1;editable=1;locked=0;connectable=1;" parent="4BHLoPZqxFKhShOrZBmn-14" vertex="1">
          <mxGeometry x="370" y="380" width="120" height="220" as="geometry">
            <mxRectangle x="370" y="380" width="80" height="30" as="alternateBounds" />
          </mxGeometry>
        </mxCell>
        <mxCell id="4BHLoPZqxFKhShOrZBmn-18" value="" style="strokeWidth=2;html=1;shape=mxgraph.flowchart.annotation_2;align=left;labelPosition=right;pointerEvents=1;rotation=-180;" parent="4BHLoPZqxFKhShOrZBmn-14" vertex="1">
          <mxGeometry x="640" y="270" width="40" height="370" as="geometry" />
        </mxCell>
        <mxCell id="4BHLoPZqxFKhShOrZBmn-19" value="Three of:" style="swimlane;fontStyle=1;childLayout=stackLayout;horizontal=1;startSize=20;horizontalStack=0;resizeParent=1;resizeParentMax=0;resizeLast=0;collapsible=1;marginBottom=0;whiteSpace=wrap;html=1;rounded=1;align=center;" parent="4BHLoPZqxFKhShOrZBmn-14" vertex="1">
          <mxGeometry x="680" y="250" width="90" height="410" as="geometry" />
        </mxCell>
        <mxCell id="4BHLoPZqxFKhShOrZBmn-20" value="BPK 303" style="text;strokeColor=none;fillColor=none;align=center;verticalAlign=middle;spacingLeft=4;spacingRight=4;overflow=hidden;points=[[0,0.5],[1,0.5]];portConstraint=eastwest;rotatable=0;whiteSpace=wrap;html=1;" parent="4BHLoPZqxFKhShOrZBmn-19" vertex="1">
          <mxGeometry y="20" width="90" height="30" as="geometry" />
        </mxCell>
        <mxCell id="4BHLoPZqxFKhShOrZBmn-21" value="BPK 304W" style="text;strokeColor=none;fillColor=none;align=center;verticalAlign=middle;spacingLeft=4;spacingRight=4;overflow=hidden;points=[[0,0.5],[1,0.5]];portConstraint=eastwest;rotatable=0;whiteSpace=wrap;html=1;" parent="4BHLoPZqxFKhShOrZBmn-19" vertex="1">
          <mxGeometry y="50" width="90" height="30" as="geometry" />
        </mxCell>
        <mxCell id="4BHLoPZqxFKhShOrZBmn-22" value="BPK 310" style="text;strokeColor=none;fillColor=none;align=center;verticalAlign=middle;spacingLeft=4;spacingRight=4;overflow=hidden;points=[[0,0.5],[1,0.5]];portConstraint=eastwest;rotatable=0;whiteSpace=wrap;html=1;" parent="4BHLoPZqxFKhShOrZBmn-19" vertex="1">
          <mxGeometry y="80" width="90" height="30" as="geometry" />
        </mxCell>
        <mxCell id="4BHLoPZqxFKhShOrZBmn-28" value="BPK 311" style="text;strokeColor=none;fillColor=none;align=center;verticalAlign=middle;spacingLeft=4;spacingRight=4;overflow=hidden;points=[[0,0.5],[1,0.5]];portConstraint=eastwest;rotatable=0;whiteSpace=wrap;html=1;" parent="4BHLoPZqxFKhShOrZBmn-19" vertex="1">
          <mxGeometry y="110" width="90" height="30" as="geometry" />
        </mxCell>
        <mxCell id="4BHLoPZqxFKhShOrZBmn-29" value="BPK 312" style="text;strokeColor=none;fillColor=none;align=center;verticalAlign=middle;spacingLeft=4;spacingRight=4;overflow=hidden;points=[[0,0.5],[1,0.5]];portConstraint=eastwest;rotatable=0;whiteSpace=wrap;html=1;" parent="4BHLoPZqxFKhShOrZBmn-19" vertex="1">
          <mxGeometry y="140" width="90" height="30" as="geometry" />
        </mxCell>
        <mxCell id="4BHLoPZqxFKhShOrZBmn-30" value="BPK 340" style="text;strokeColor=none;fillColor=none;align=center;verticalAlign=middle;spacingLeft=4;spacingRight=4;overflow=hidden;points=[[0,0.5],[1,0.5]];portConstraint=eastwest;rotatable=0;whiteSpace=wrap;html=1;" parent="4BHLoPZqxFKhShOrZBmn-19" vertex="1">
          <mxGeometry y="170" width="90" height="30" as="geometry" />
        </mxCell>
        <mxCell id="4BHLoPZqxFKhShOrZBmn-31" value="BPK 375" style="text;strokeColor=none;fillColor=none;align=center;verticalAlign=middle;spacingLeft=4;spacingRight=4;overflow=hidden;points=[[0,0.5],[1,0.5]];portConstraint=eastwest;rotatable=0;whiteSpace=wrap;html=1;" parent="4BHLoPZqxFKhShOrZBmn-19" vertex="1">
          <mxGeometry y="200" width="90" height="30" as="geometry" />
        </mxCell>
        <mxCell id="4BHLoPZqxFKhShOrZBmn-32" value="BPK 420" style="text;strokeColor=none;fillColor=none;align=center;verticalAlign=middle;spacingLeft=4;spacingRight=4;overflow=hidden;points=[[0,0.5],[1,0.5]];portConstraint=eastwest;rotatable=0;whiteSpace=wrap;html=1;" parent="4BHLoPZqxFKhShOrZBmn-19" vertex="1">
          <mxGeometry y="230" width="90" height="30" as="geometry" />
        </mxCell>
        <mxCell id="4BHLoPZqxFKhShOrZBmn-33" value="BPK 421" style="text;strokeColor=none;fillColor=none;align=center;verticalAlign=middle;spacingLeft=4;spacingRight=4;overflow=hidden;points=[[0,0.5],[1,0.5]];portConstraint=eastwest;rotatable=0;whiteSpace=wrap;html=1;" parent="4BHLoPZqxFKhShOrZBmn-19" vertex="1">
          <mxGeometry y="260" width="90" height="30" as="geometry" />
        </mxCell>
        <mxCell id="4BHLoPZqxFKhShOrZBmn-34" value="BPK 422" style="text;strokeColor=none;fillColor=none;align=center;verticalAlign=middle;spacingLeft=4;spacingRight=4;overflow=hidden;points=[[0,0.5],[1,0.5]];portConstraint=eastwest;rotatable=0;whiteSpace=wrap;html=1;" parent="4BHLoPZqxFKhShOrZBmn-19" vertex="1">
          <mxGeometry y="290" width="90" height="30" as="geometry" />
        </mxCell>
        <mxCell id="4BHLoPZqxFKhShOrZBmn-35" value="BPK 423" style="text;strokeColor=none;fillColor=none;align=center;verticalAlign=middle;spacingLeft=4;spacingRight=4;overflow=hidden;points=[[0,0.5],[1,0.5]];portConstraint=eastwest;rotatable=0;whiteSpace=wrap;html=1;" parent="4BHLoPZqxFKhShOrZBmn-19" vertex="1">
          <mxGeometry y="320" width="90" height="30" as="geometry" />
        </mxCell>
        <mxCell id="4BHLoPZqxFKhShOrZBmn-36" value="GERO 407" style="text;strokeColor=none;fillColor=none;align=center;verticalAlign=middle;spacingLeft=4;spacingRight=4;overflow=hidden;points=[[0,0.5],[1,0.5]];portConstraint=eastwest;rotatable=0;whiteSpace=wrap;html=1;" parent="4BHLoPZqxFKhShOrZBmn-19" vertex="1">
          <mxGeometry y="350" width="90" height="30" as="geometry" />
        </mxCell>
        <mxCell id="4BHLoPZqxFKhShOrZBmn-37" value="HSCI 312" style="text;strokeColor=none;fillColor=none;align=center;verticalAlign=middle;spacingLeft=4;spacingRight=4;overflow=hidden;points=[[0,0.5],[1,0.5]];portConstraint=eastwest;rotatable=0;whiteSpace=wrap;html=1;" parent="4BHLoPZqxFKhShOrZBmn-19" vertex="1">
          <mxGeometry y="380" width="90" height="30" as="geometry" />
        </mxCell>
        <mxCell id="1" value="Diagram" parent="0" />
        <mxCell id="cINZNil0Zcbs7LyowT9o-32" value="" style="rounded=0;whiteSpace=wrap;html=1;shadow=0;glass=0;sketch=0;strokeColor=default;" parent="1" vertex="1">
          <mxGeometry x="130" y="787" width="612.5" height="120" as="geometry" />
        </mxCell>
        <mxCell id="cINZNil0Zcbs7LyowT9o-31" value="" style="rounded=0;whiteSpace=wrap;html=1;shadow=0;glass=0;sketch=0;strokeColor=default;" parent="1" vertex="1">
          <mxGeometry x="40" y="210" width="100" height="468" as="geometry" />
        </mxCell>
        <mxCell id="3WOV2BCKVk76SARKrsxa-23" style="edgeStyle=orthogonalEdgeStyle;rounded=0;orthogonalLoop=1;jettySize=auto;html=1;exitX=1;exitY=0.5;exitDx=0;exitDy=0;exitPerimeter=0;entryX=0.175;entryY=0.75;entryDx=0;entryDy=0;entryPerimeter=0;" parent="1" source="3WOV2BCKVk76SARKrsxa-2" target="3WOV2BCKVk76SARKrsxa-22" edge="1">
          <mxGeometry relative="1" as="geometry">
            <Array as="points">
              <mxPoint x="323" y="363" />
              <mxPoint x="323" y="348" />
            </Array>
          </mxGeometry>
        </mxCell>
        <object label="BPK 110" Course="Human Nutrition: Current Issues" Code="110" Units="3" Department="BPK" id="3WOV2BCKVk76SARKrsxa-2">
          <mxCell style="html=1;dashed=0;whitespace=wrap;shape=mxgraph.dfd.start;fillColor=#d5e8d4;strokeColor=#82b366;perimeterSpacing=0;shadow=0;" parent="1" vertex="1">
            <mxGeometry x="218" y="348" width="80" height="30" as="geometry" />
          </mxCell>
        </object>
        <mxCell id="3WOV2BCKVk76SARKrsxa-16" value="Advised" style="edgeStyle=orthogonalEdgeStyle;rounded=0;orthogonalLoop=1;jettySize=auto;html=1;exitX=1;exitY=0.5;exitDx=0;exitDy=0;exitPerimeter=0;dashed=1;entryX=0;entryY=0.5;entryDx=0;entryDy=0;entryPerimeter=0;labelPosition=right;verticalLabelPosition=middle;align=left;verticalAlign=middle;" parent="1" source="3WOV2BCKVk76SARKrsxa-3" target="3WOV2BCKVk76SARKrsxa-8" edge="1">
          <mxGeometry x="-0.5368" relative="1" as="geometry">
            <mxPoint x="383" y="505" as="targetPoint" />
            <mxPoint as="offset" />
            <Array as="points">
              <mxPoint x="330" y="505" />
              <mxPoint x="330" y="505" />
            </Array>
          </mxGeometry>
        </mxCell>
        <object label="BPK 140" Course="Contemporary Health Issues" Department="BPK" Code="140" Units="3" id="3WOV2BCKVk76SARKrsxa-3">
          <mxCell style="html=1;dashed=0;whitespace=wrap;shape=mxgraph.dfd.start;fillColor=#d5e8d4;strokeColor=#82b366;" parent="1" vertex="1">
            <mxGeometry x="218" y="490" width="80" height="30" as="geometry" />
          </mxCell>
        </object>
        <mxCell id="3WOV2BCKVk76SARKrsxa-15" style="edgeStyle=orthogonalEdgeStyle;rounded=0;orthogonalLoop=1;jettySize=auto;html=1;exitX=1;exitY=0.5;exitDx=0;exitDy=0;exitPerimeter=0;entryX=0;entryY=0.5;entryDx=0;entryDy=0;entryPerimeter=0;" parent="1" source="3WOV2BCKVk76SARKrsxa-4" target="3WOV2BCKVk76SARKrsxa-10" edge="1">
          <mxGeometry relative="1" as="geometry">
            <Array as="points">
              <mxPoint x="340" y="585" />
              <mxPoint x="340" y="615" />
            </Array>
          </mxGeometry>
        </mxCell>
        <mxCell id="3WOV2BCKVk76SARKrsxa-21" style="edgeStyle=orthogonalEdgeStyle;rounded=0;orthogonalLoop=1;jettySize=auto;html=1;exitX=0;exitY=0;exitDx=75.605;exitDy=25.604999999999997;exitPerimeter=0;entryX=0;entryY=0.25;entryDx=0;entryDy=0;entryPerimeter=0;" parent="1" source="3WOV2BCKVk76SARKrsxa-4" target="3WOV2BCKVk76SARKrsxa-17" edge="1">
          <mxGeometry relative="1" as="geometry">
            <Array as="points">
              <mxPoint x="323" y="596" />
              <mxPoint x="323" y="650" />
            </Array>
          </mxGeometry>
        </mxCell>
        <object label="BPK 142" Course="Introduction to BPK" Code="142" Units="3" Department="BPK" id="3WOV2BCKVk76SARKrsxa-4">
          <mxCell style="html=1;dashed=0;whitespace=wrap;shape=mxgraph.dfd.start;fillColor=#d5e8d4;strokeColor=#82b366;" parent="1" vertex="1">
            <mxGeometry x="218" y="570" width="80" height="30" as="geometry" />
          </mxCell>
        </object>
        <mxCell id="3WOV2BCKVk76SARKrsxa-19" style="edgeStyle=orthogonalEdgeStyle;rounded=0;orthogonalLoop=1;jettySize=auto;html=1;exitX=1;exitY=0.5;exitDx=0;exitDy=0;exitPerimeter=0;entryX=0;entryY=0.5;entryDx=0;entryDy=0;entryPerimeter=0;" parent="1" source="3WOV2BCKVk76SARKrsxa-5" target="3WOV2BCKVk76SARKrsxa-17" edge="1">
          <mxGeometry relative="1" as="geometry" />
        </mxCell>
        <object label="BPK 143" Course="Exercise: Health and Performance" Department="BPK" Code="143" Units="3" id="3WOV2BCKVk76SARKrsxa-5">
          <mxCell style="html=1;dashed=0;whitespace=wrap;shape=mxgraph.dfd.start;fillColor=#d5e8d4;strokeColor=#82b366;" parent="1" vertex="1">
            <mxGeometry x="218" y="650" width="80" height="30" as="geometry" />
          </mxCell>
        </object>
        <mxCell id="3WOV2BCKVk76SARKrsxa-20" style="edgeStyle=orthogonalEdgeStyle;rounded=0;orthogonalLoop=1;jettySize=auto;html=1;exitX=1;exitY=0.5;exitDx=0;exitDy=0;exitPerimeter=0;entryX=0;entryY=0.75;entryDx=0;entryDy=0;entryPerimeter=0;" parent="1" source="3WOV2BCKVk76SARKrsxa-7" target="3WOV2BCKVk76SARKrsxa-17" edge="1">
          <mxGeometry relative="1" as="geometry" />
        </mxCell>
        <object label="BPK 105" Course="Fundamentals of Human Structure and Function" Department="BPK" Code="105" Units="3" id="3WOV2BCKVk76SARKrsxa-7">
          <mxCell style="html=1;dashed=0;whitespace=wrap;shape=mxgraph.dfd.start;fillColor=#d5e8d4;strokeColor=#82b366;" parent="1" vertex="1">
            <mxGeometry x="218" y="730" width="80" height="30" as="geometry" />
          </mxCell>
        </object>
        <object label="BPK 207" Course="Sensorimotor Control and Learning" Units="3" Department="BPK" Code="207" id="3WOV2BCKVk76SARKrsxa-8">
          <mxCell style="html=1;dashed=0;whitespace=wrap;shape=mxgraph.dfd.start;fillColor=#e1d5e7;strokeColor=#9673a6;sketch=1;curveFitting=1;jiggle=2;" parent="1" vertex="1">
            <mxGeometry x="393" y="490" width="77" height="30" as="geometry" />
          </mxCell>
        </object>
        <object label="BPK 342" Code="342" Department="BPK" Units="3" Course="Active Health" id="3WOV2BCKVk76SARKrsxa-9">
          <mxCell style="html=1;dashed=0;whitespace=wrap;shape=mxgraph.dfd.start;fillColor=#d5e8d4;strokeColor=#82b366;" parent="1" vertex="1">
            <mxGeometry x="553" y="650" width="80" height="30" as="geometry" />
          </mxCell>
        </object>
        <object label="BPK 340" Code="340" Department="BPK" Units="3" Course="Active Health: Behaviour and Promotion" id="3WOV2BCKVk76SARKrsxa-10">
          <mxCell style="html=1;dashed=0;whitespace=wrap;shape=mxgraph.dfd.start;fillColor=#dae8fc;strokeColor=#6c8ebf;sketch=1;curveFitting=1;jiggle=2;" parent="1" vertex="1">
            <mxGeometry x="553" y="600" width="80" height="30" as="geometry" />
          </mxCell>
        </object>
        <object label="BPK 375" Code="375" Department="BPK" Units="3" Course="Human Growth and Development" id="3WOV2BCKVk76SARKrsxa-11">
          <mxCell style="html=1;dashed=0;whitespace=wrap;shape=mxgraph.dfd.start;fillColor=#dae8fc;strokeColor=#6c8ebf;sketch=1;curveFitting=1;jiggle=2;" parent="1" vertex="1">
            <mxGeometry x="553" y="460" width="80" height="30" as="geometry" />
          </mxCell>
        </object>
        <object label="HSCI 312" Department="HSCI" Code="312" Units="3" Course="Health Promotion: Individuals and Communities" id="3WOV2BCKVk76SARKrsxa-12">
          <mxCell style="html=1;dashed=0;whitespace=wrap;shape=mxgraph.dfd.start;fillColor=#e1d5e7;strokeColor=#9673a6;sketch=1;curveFitting=1;jiggle=2;opacity=40;textOpacity=40;" parent="1" vertex="1">
            <mxGeometry x="553" y="283" width="80" height="30" as="geometry" />
          </mxCell>
        </object>
        <mxCell id="3WOV2BCKVk76SARKrsxa-18" style="edgeStyle=orthogonalEdgeStyle;rounded=0;orthogonalLoop=1;jettySize=auto;html=1;exitX=1;exitY=0.5;exitDx=0;exitDy=0;exitPerimeter=0;entryX=0;entryY=0.5;entryDx=0;entryDy=0;entryPerimeter=0;" parent="1" source="3WOV2BCKVk76SARKrsxa-17" target="3WOV2BCKVk76SARKrsxa-9" edge="1">
          <mxGeometry relative="1" as="geometry" />
        </mxCell>
        <mxCell id="3WOV2BCKVk76SARKrsxa-17" value="" style="shape=or;whiteSpace=wrap;html=1;fillColor=#d5e8d4;strokeColor=#82b366;" parent="1" vertex="1">
          <mxGeometry x="343" y="635" width="40" height="60" as="geometry" />
        </mxCell>
        <mxCell id="3WOV2BCKVk76SARKrsxa-29" style="edgeStyle=orthogonalEdgeStyle;rounded=0;orthogonalLoop=1;jettySize=auto;html=1;exitX=1;exitY=0.5;exitDx=0;exitDy=0;exitPerimeter=0;entryX=0;entryY=0.75;entryDx=0;entryDy=0;entryPerimeter=0;" parent="1" source="3WOV2BCKVk76SARKrsxa-22" target="3WOV2BCKVk76SARKrsxa-28" edge="1">
          <mxGeometry relative="1" as="geometry" />
        </mxCell>
        <mxCell id="3WOV2BCKVk76SARKrsxa-22" value="" style="shape=xor;whiteSpace=wrap;html=1;fillColor=#d5e8d4;strokeColor=#82b366;" parent="1" vertex="1">
          <mxGeometry x="343" y="303" width="40" height="60" as="geometry" />
        </mxCell>
        <mxCell id="3WOV2BCKVk76SARKrsxa-26" style="edgeStyle=orthogonalEdgeStyle;rounded=0;orthogonalLoop=1;jettySize=auto;html=1;exitX=1;exitY=0.5;exitDx=0;exitDy=0;exitPerimeter=0;entryX=0.175;entryY=0.25;entryDx=0;entryDy=0;entryPerimeter=0;" parent="1" source="3WOV2BCKVk76SARKrsxa-25" target="3WOV2BCKVk76SARKrsxa-22" edge="1">
          <mxGeometry relative="1" as="geometry">
            <Array as="points">
              <mxPoint x="323" y="298" />
              <mxPoint x="323" y="318" />
            </Array>
          </mxGeometry>
        </mxCell>
        <object label="HSCI 130" Department="HSCI" Code="130" Units="4" Course="Foundations of Health Science" id="3WOV2BCKVk76SARKrsxa-25">
          <mxCell style="html=1;dashed=0;whitespace=wrap;shape=mxgraph.dfd.start;fillColor=#d5e8d4;strokeColor=#82b366;sketch=1;curveFitting=1;jiggle=2;" parent="1" vertex="1">
            <mxGeometry x="218" y="283" width="80" height="30" as="geometry" />
          </mxCell>
        </object>
        <mxCell id="3WOV2BCKVk76SARKrsxa-30" style="edgeStyle=orthogonalEdgeStyle;rounded=0;orthogonalLoop=1;jettySize=auto;html=1;exitX=0.5;exitY=1;exitDx=0;exitDy=0;entryX=0;entryY=0.25;entryDx=0;entryDy=0;entryPerimeter=0;" parent="1" source="3WOV2BCKVk76SARKrsxa-27" target="3WOV2BCKVk76SARKrsxa-28" edge="1">
          <mxGeometry relative="1" as="geometry" />
        </mxCell>
        <mxCell id="3WOV2BCKVk76SARKrsxa-27" value="60 Units&lt;br&gt;Complete" style="html=1;dashed=0;whitespace=wrap;fillColor=#d5e8d4;strokeColor=#82b366;sketch=1;curveFitting=1;jiggle=2;" parent="1" vertex="1">
          <mxGeometry x="323" y="208" width="80" height="40" as="geometry" />
        </mxCell>
        <mxCell id="3WOV2BCKVk76SARKrsxa-31" style="edgeStyle=orthogonalEdgeStyle;rounded=0;orthogonalLoop=1;jettySize=auto;html=1;exitX=1;exitY=0.5;exitDx=0;exitDy=0;exitPerimeter=0;entryX=0;entryY=0.5;entryDx=0;entryDy=0;entryPerimeter=0;" parent="1" source="3WOV2BCKVk76SARKrsxa-28" target="3WOV2BCKVk76SARKrsxa-12" edge="1">
          <mxGeometry relative="1" as="geometry" />
        </mxCell>
        <mxCell id="3WOV2BCKVk76SARKrsxa-28" value="" style="shape=or;whiteSpace=wrap;html=1;fillColor=#d5e8d4;strokeColor=#82b366;" parent="1" vertex="1">
          <mxGeometry x="453" y="268" width="40" height="60" as="geometry" />
        </mxCell>
        <mxCell id="3WOV2BCKVk76SARKrsxa-32" value="Kinesiology Minor Program" style="text;strokeColor=none;fillColor=none;html=1;fontSize=24;fontStyle=1;verticalAlign=middle;align=center;" parent="1" vertex="1">
          <mxGeometry x="257.5" y="100" width="345" height="50" as="geometry" />
        </mxCell>
        <mxCell id="3WOV2BCKVk76SARKrsxa-33" value="Updated Dec 4, 2024" style="text;strokeColor=none;fillColor=none;html=1;fontSize=18;fontStyle=1;verticalAlign=middle;align=center;" parent="1" vertex="1">
          <mxGeometry x="323.5" y="140" width="195" height="40" as="geometry" />
        </mxCell>
        <object label="BPK 325" Code="325" Department="BPK" Units="3" Course="Basic Human Anatomy" id="cINZNil0Zcbs7LyowT9o-3">
          <mxCell style="html=1;dashed=0;whitespace=wrap;shape=mxgraph.dfd.start;fillColor=#d5e8d4;strokeColor=#82b366;" parent="1" vertex="1">
            <mxGeometry x="553" y="730" width="80" height="30" as="geometry" />
          </mxCell>
        </object>
        <mxCell id="cINZNil0Zcbs7LyowT9o-4" value="Level 100" style="text;html=1;strokeColor=none;fillColor=none;align=center;verticalAlign=middle;whiteSpace=wrap;rounded=0;fontStyle=0" parent="1" vertex="1">
          <mxGeometry x="238" y="787" width="60" height="30" as="geometry" />
        </mxCell>
        <mxCell id="cINZNil0Zcbs7LyowT9o-5" value="Level 200" style="text;html=1;strokeColor=none;fillColor=none;align=center;verticalAlign=middle;whiteSpace=wrap;rounded=0;fontStyle=0" parent="1" vertex="1">
          <mxGeometry x="360" y="787" width="60" height="30" as="geometry" />
        </mxCell>
        <mxCell id="cINZNil0Zcbs7LyowT9o-6" value="Level 300" style="text;html=1;strokeColor=none;fillColor=none;align=center;verticalAlign=middle;whiteSpace=wrap;rounded=0;fontStyle=0" parent="1" vertex="1">
          <mxGeometry x="473" y="787" width="60" height="30" as="geometry" />
        </mxCell>
        <mxCell id="cINZNil0Zcbs7LyowT9o-7" value="Completed" style="text;html=1;strokeColor=none;fillColor=none;align=right;verticalAlign=middle;whiteSpace=wrap;rounded=0;fontStyle=1" parent="1" vertex="1">
          <mxGeometry x="150" y="847" width="60" height="30" as="geometry" />
        </mxCell>
        <mxCell id="cINZNil0Zcbs7LyowT9o-8" value="Out of" style="text;html=1;strokeColor=none;fillColor=none;align=right;verticalAlign=middle;whiteSpace=wrap;rounded=0;fontStyle=1;glass=0;shadow=0;" parent="1" vertex="1">
          <mxGeometry x="150" y="877" width="60" height="30" as="geometry" />
        </mxCell>
        <mxCell id="cINZNil0Zcbs7LyowT9o-9" value="15" style="text;html=1;strokeColor=none;fillColor=none;align=center;verticalAlign=middle;whiteSpace=wrap;rounded=0;" parent="1" vertex="1">
          <mxGeometry x="238" y="847" width="60" height="30" as="geometry" />
        </mxCell>
        <mxCell id="cINZNil0Zcbs7LyowT9o-10" value="15" style="text;html=1;strokeColor=none;fillColor=none;align=center;verticalAlign=middle;whiteSpace=wrap;rounded=0;glass=0;shadow=0;" parent="1" vertex="1">
          <mxGeometry x="238" y="877" width="60" height="30" as="geometry" />
        </mxCell>
        <mxCell id="cINZNil0Zcbs7LyowT9o-11" value="3" style="text;html=1;strokeColor=none;fillColor=none;align=center;verticalAlign=middle;whiteSpace=wrap;rounded=0;glass=0;shadow=0;" parent="1" vertex="1">
          <mxGeometry x="360" y="877" width="60" height="30" as="geometry" />
        </mxCell>
        <mxCell id="cINZNil0Zcbs7LyowT9o-12" value="0" style="text;html=1;strokeColor=none;fillColor=none;align=center;verticalAlign=middle;whiteSpace=wrap;rounded=0;" parent="1" vertex="1">
          <mxGeometry x="360" y="847" width="60" height="30" as="geometry" />
        </mxCell>
        <mxCell id="cINZNil0Zcbs7LyowT9o-13" value="6" style="text;html=1;strokeColor=none;fillColor=none;align=center;verticalAlign=middle;whiteSpace=wrap;rounded=0;" parent="1" vertex="1">
          <mxGeometry x="473" y="847" width="60" height="30" as="geometry" />
        </mxCell>
        <mxCell id="cINZNil0Zcbs7LyowT9o-14" value="15" style="text;html=1;strokeColor=none;fillColor=none;align=center;verticalAlign=middle;whiteSpace=wrap;rounded=0;glass=0;shadow=0;" parent="1" vertex="1">
          <mxGeometry x="473" y="877" width="60" height="30" as="geometry" />
        </mxCell>
        <mxCell id="cINZNil0Zcbs7LyowT9o-15" value="0" style="text;html=1;strokeColor=none;fillColor=none;align=center;verticalAlign=middle;whiteSpace=wrap;rounded=0;" parent="1" vertex="1">
          <mxGeometry x="238" y="817" width="60" height="30" as="geometry" />
        </mxCell>
        <mxCell id="cINZNil0Zcbs7LyowT9o-16" value="3" style="text;html=1;strokeColor=none;fillColor=none;align=center;verticalAlign=middle;whiteSpace=wrap;rounded=0;" parent="1" vertex="1">
          <mxGeometry x="360" y="817" width="60" height="30" as="geometry" />
        </mxCell>
        <mxCell id="cINZNil0Zcbs7LyowT9o-17" value="9" style="text;html=1;strokeColor=none;fillColor=none;align=center;verticalAlign=middle;whiteSpace=wrap;rounded=0;" parent="1" vertex="1">
          <mxGeometry x="473" y="817" width="60" height="30" as="geometry" />
        </mxCell>
        <mxCell id="cINZNil0Zcbs7LyowT9o-18" value="In Progress" style="text;html=1;strokeColor=none;fillColor=none;align=right;verticalAlign=middle;whiteSpace=wrap;rounded=0;fontStyle=1" parent="1" vertex="1">
          <mxGeometry x="140" y="817" width="70" height="30" as="geometry" />
        </mxCell>
        <mxCell id="cINZNil0Zcbs7LyowT9o-19" value="Total" style="text;html=1;strokeColor=none;fillColor=none;align=center;verticalAlign=middle;whiteSpace=wrap;rounded=0;fontStyle=1" parent="1" vertex="1">
          <mxGeometry x="580" y="787" width="170" height="30" as="geometry" />
        </mxCell>
        <mxCell id="cINZNil0Zcbs7LyowT9o-20" value="64%" style="text;html=1;strokeColor=none;fillColor=none;align=center;verticalAlign=middle;whiteSpace=wrap;rounded=0;fontStyle=2" parent="1" vertex="1">
          <mxGeometry x="682.5" y="847" width="60" height="30" as="geometry" />
        </mxCell>
        <mxCell id="cINZNil0Zcbs7LyowT9o-21" value="100%" style="text;html=1;strokeColor=none;fillColor=none;align=center;verticalAlign=middle;whiteSpace=wrap;rounded=0;fontStyle=2;glass=0;shadow=0;" parent="1" vertex="1">
          <mxGeometry x="682.5" y="877" width="60" height="30" as="geometry" />
        </mxCell>
        <mxCell id="cINZNil0Zcbs7LyowT9o-22" value="36%" style="text;html=1;strokeColor=none;fillColor=none;align=center;verticalAlign=middle;whiteSpace=wrap;rounded=0;fontStyle=2" parent="1" vertex="1">
          <mxGeometry x="682.5" y="817" width="60" height="30" as="geometry" />
        </mxCell>
        <object label="Core&lt;br&gt;Requirement" id="cINZNil0Zcbs7LyowT9o-23">
          <mxCell style="html=1;dashed=0;whitespace=wrap;shape=mxgraph.dfd.start;perimeterSpacing=0;shadow=0;fillColor=#eeeeee;strokeColor=#36393d;" parent="1" vertex="1">
            <mxGeometry x="50" y="321" width="80" height="30" as="geometry" />
          </mxCell>
        </object>
        <object label="Elective&lt;br&gt;Requirement" id="cINZNil0Zcbs7LyowT9o-24">
          <mxCell style="html=1;dashed=0;whitespace=wrap;shape=mxgraph.dfd.start;perimeterSpacing=0;shadow=0;sketch=1;curveFitting=1;jiggle=2;fillColor=#eeeeee;strokeColor=#36393d;" parent="1" vertex="1">
            <mxGeometry x="50" y="386" width="80" height="30" as="geometry" />
          </mxCell>
        </object>
        <object label="Complete" id="cINZNil0Zcbs7LyowT9o-25">
          <mxCell style="html=1;dashed=0;whitespace=wrap;shape=mxgraph.dfd.start;perimeterSpacing=0;shadow=0;fillColor=#d5e8d4;strokeColor=none;" parent="1" vertex="1">
            <mxGeometry x="50" y="448" width="80" height="30" as="geometry" />
          </mxCell>
        </object>
        <object label="In Progress" id="cINZNil0Zcbs7LyowT9o-26">
          <mxCell style="html=1;dashed=0;whitespace=wrap;shape=mxgraph.dfd.start;perimeterSpacing=0;shadow=0;fillColor=#dae8fc;strokeColor=none;" parent="1" vertex="1">
            <mxGeometry x="50" y="511" width="80" height="30" as="geometry" />
          </mxCell>
        </object>
        <object label="Ready to&lt;br&gt;Enroll" id="cINZNil0Zcbs7LyowT9o-27">
          <mxCell style="html=1;dashed=0;whitespace=wrap;shape=mxgraph.dfd.start;perimeterSpacing=0;shadow=0;fillColor=#e1d5e7;strokeColor=none;" parent="1" vertex="1">
            <mxGeometry x="50" y="573" width="80" height="30" as="geometry" />
          </mxCell>
        </object>
        <object label="Missing&lt;br&gt;Prerequisite" id="cINZNil0Zcbs7LyowT9o-28">
          <mxCell style="html=1;dashed=0;whitespace=wrap;shape=mxgraph.dfd.start;perimeterSpacing=0;shadow=0;fillColor=#f8cecc;strokeColor=none;" parent="1" vertex="1">
            <mxGeometry x="50" y="636" width="80" height="30" as="geometry" />
          </mxCell>
        </object>
        <mxCell id="cINZNil0Zcbs7LyowT9o-29" value="Non-Course&lt;br&gt;Requirement" style="html=1;dashed=0;whitespace=wrap;fillColor=#eeeeee;strokeColor=#36393d;" parent="1" vertex="1">
          <mxGeometry x="50" y="246" width="80" height="40" as="geometry" />
        </mxCell>
        <mxCell id="cINZNil0Zcbs7LyowT9o-30" value="Legend&lt;br&gt;" style="text;html=1;strokeColor=none;fillColor=none;align=center;verticalAlign=middle;whiteSpace=wrap;rounded=0;fontStyle=1" parent="1" vertex="1">
          <mxGeometry x="60" y="208" width="60" height="30" as="geometry" />
        </mxCell>
        <mxCell id="cINZNil0Zcbs7LyowT9o-33" value="" style="endArrow=none;html=1;rounded=0;exitX=0;exitY=0;exitDx=0;exitDy=0;" parent="1" source="cINZNil0Zcbs7LyowT9o-8" edge="1">
          <mxGeometry width="50" height="50" relative="1" as="geometry">
            <mxPoint x="160" y="877" as="sourcePoint" />
            <mxPoint x="210" y="877" as="targetPoint" />
          </mxGeometry>
        </mxCell>
        <mxCell id="cINZNil0Zcbs7LyowT9o-34" value="" style="endArrow=none;html=1;rounded=0;" parent="1" edge="1">
          <mxGeometry width="50" height="50" relative="1" as="geometry">
            <mxPoint x="249.5" y="877" as="sourcePoint" />
            <mxPoint x="286.5" y="877" as="targetPoint" />
          </mxGeometry>
        </mxCell>
        <mxCell id="cINZNil0Zcbs7LyowT9o-35" value="" style="endArrow=none;html=1;rounded=0;" parent="1" edge="1">
          <mxGeometry width="50" height="50" relative="1" as="geometry">
            <mxPoint x="371.5" y="877" as="sourcePoint" />
            <mxPoint x="408.5" y="877" as="targetPoint" />
          </mxGeometry>
        </mxCell>
        <mxCell id="cINZNil0Zcbs7LyowT9o-36" value="" style="endArrow=none;html=1;rounded=0;" parent="1" edge="1">
          <mxGeometry width="50" height="50" relative="1" as="geometry">
            <mxPoint x="484.5" y="877" as="sourcePoint" />
            <mxPoint x="521.5" y="877" as="targetPoint" />
          </mxGeometry>
        </mxCell>
        <mxCell id="cINZNil0Zcbs7LyowT9o-37" value="" style="endArrow=none;html=1;rounded=0;" parent="1" edge="1">
          <mxGeometry width="50" height="50" relative="1" as="geometry">
            <mxPoint x="694" y="877" as="sourcePoint" />
            <mxPoint x="731" y="877" as="targetPoint" />
          </mxGeometry>
        </mxCell>
        <mxCell id="cINZNil0Zcbs7LyowT9o-38" value="" style="endArrow=none;html=1;rounded=0;" parent="1" edge="1">
          <mxGeometry width="50" height="50" relative="1" as="geometry">
            <mxPoint x="40" y="237.05" as="sourcePoint" />
            <mxPoint x="140" y="237.05" as="targetPoint" />
          </mxGeometry>
        </mxCell>
        <mxCell id="cINZNil0Zcbs7LyowT9o-39" value="Units" style="text;html=1;strokeColor=none;fillColor=none;align=center;verticalAlign=middle;whiteSpace=wrap;rounded=0;fontStyle=0;labelBorderColor=none;" parent="1" vertex="1">
          <mxGeometry x="135" y="792" width="80" height="20" as="geometry" />
        </mxCell>
        <mxCell id="W3TFd2X2cm_PyBwLdbxR-1" value="21" style="text;html=1;strokeColor=none;fillColor=none;align=center;verticalAlign=middle;whiteSpace=wrap;rounded=0;" parent="1" vertex="1">
          <mxGeometry x="590" y="847" width="60" height="30" as="geometry" />
        </mxCell>
        <mxCell id="W3TFd2X2cm_PyBwLdbxR-2" value="33" style="text;html=1;strokeColor=none;fillColor=none;align=center;verticalAlign=middle;whiteSpace=wrap;rounded=0;glass=0;shadow=0;" parent="1" vertex="1">
          <mxGeometry x="590" y="877" width="60" height="30" as="geometry" />
        </mxCell>
        <mxCell id="W3TFd2X2cm_PyBwLdbxR-3" value="12" style="text;html=1;strokeColor=none;fillColor=none;align=center;verticalAlign=middle;whiteSpace=wrap;rounded=0;" parent="1" vertex="1">
          <mxGeometry x="590" y="817" width="60" height="30" as="geometry" />
        </mxCell>
        <mxCell id="W3TFd2X2cm_PyBwLdbxR-4" value="" style="endArrow=none;html=1;rounded=0;" parent="1" edge="1">
          <mxGeometry width="50" height="50" relative="1" as="geometry">
            <mxPoint x="601.5" y="877" as="sourcePoint" />
            <mxPoint x="638.5" y="877" as="targetPoint" />
          </mxGeometry>
        </mxCell>
        <mxCell id="W3TFd2X2cm_PyBwLdbxR-5" value="" style="endArrow=none;html=1;rounded=0;entryX=0;entryY=0;entryDx=0;entryDy=0;" parent="1" target="cINZNil0Zcbs7LyowT9o-19" edge="1">
          <mxGeometry width="50" height="50" relative="1" as="geometry">
            <mxPoint x="580" y="907" as="sourcePoint" />
            <mxPoint x="610" y="937" as="targetPoint" />
          </mxGeometry>
        </mxCell>
        <mxCell id="W3TFd2X2cm_PyBwLdbxR-6" value="" style="endArrow=none;html=1;rounded=0;exitX=0;exitY=0.25;exitDx=0;exitDy=0;entryX=1;entryY=0;entryDx=0;entryDy=0;" parent="1" source="cINZNil0Zcbs7LyowT9o-32" target="cINZNil0Zcbs7LyowT9o-22" edge="1">
          <mxGeometry width="50" height="50" relative="1" as="geometry">
            <mxPoint x="396" y="967" as="sourcePoint" />
            <mxPoint x="446" y="917" as="targetPoint" />
          </mxGeometry>
        </mxCell>
        <object label="MATH 155" Course="Calculus II" Department="MATH" Code="155" Units="3" id="4BHLoPZqxFKhShOrZBmn-1">
          <mxCell style="html=1;dashed=0;whitespace=wrap;shape=mxgraph.dfd.start;fillColor=#d5e8d4;strokeColor=#82b366;shadow=0;" parent="1" vertex="1">
            <mxGeometry x="218" y="420" width="80" height="30" as="geometry" />
          </mxCell>
        </object>
        <object label="BPK 201" Course="Biomechanics" Units="3" Department="BPK" Code="201" id="4BHLoPZqxFKhShOrZBmn-3">
          <mxCell style="html=1;dashed=0;whitespace=wrap;shape=mxgraph.dfd.start;fillColor=#dae8fc;strokeColor=#6c8ebf;sketch=1;curveFitting=1;jiggle=2;" parent="1" vertex="1">
            <mxGeometry x="390" y="420" width="80" height="30" as="geometry" />
          </mxCell>
        </object>
        <mxCell id="4BHLoPZqxFKhShOrZBmn-4" style="edgeStyle=orthogonalEdgeStyle;rounded=0;orthogonalLoop=1;jettySize=auto;html=1;exitX=1;exitY=0.5;exitDx=0;exitDy=0;exitPerimeter=0;entryX=0;entryY=0.5;entryDx=0;entryDy=0;entryPerimeter=0;" parent="1" source="4BHLoPZqxFKhShOrZBmn-1" target="4BHLoPZqxFKhShOrZBmn-3" edge="1">
          <mxGeometry relative="1" as="geometry" />
        </mxCell>
        <mxCell id="4BHLoPZqxFKhShOrZBmn-11" style="edgeStyle=orthogonalEdgeStyle;rounded=0;orthogonalLoop=1;jettySize=auto;html=1;exitX=0;exitY=0;exitDx=75.605;exitDy=4.395000000000001;exitPerimeter=0;entryX=0;entryY=0;entryDx=4.395;entryDy=25.604999999999997;entryPerimeter=0;" parent="1" source="3WOV2BCKVk76SARKrsxa-4" target="3WOV2BCKVk76SARKrsxa-8" edge="1">
          <mxGeometry relative="1" as="geometry">
            <Array as="points">
              <mxPoint x="340" y="574" />
              <mxPoint x="340" y="516" />
            </Array>
          </mxGeometry>
        </mxCell>
        <object label="BPK 241" Course="Biomechanics" Units="3" Department="BPK" Code="201" id="4BHLoPZqxFKhShOrZBmn-12">
          <mxCell style="html=1;dashed=0;whitespace=wrap;shape=mxgraph.dfd.start;fillColor=#e1d5e7;strokeColor=#9673a6;sketch=1;curveFitting=1;jiggle=2;" parent="1" vertex="1">
            <mxGeometry x="390" y="560" width="80" height="30" as="geometry" />
          </mxCell>
        </object>
        <mxCell id="4BHLoPZqxFKhShOrZBmn-13" style="edgeStyle=orthogonalEdgeStyle;rounded=0;orthogonalLoop=1;jettySize=auto;html=1;exitX=0;exitY=0;exitDx=75.605;exitDy=4.395000000000001;exitPerimeter=0;entryX=0;entryY=0.5;entryDx=0;entryDy=0;entryPerimeter=0;strokeColor=#9673a6;fillColor=#e1d5e7;" parent="1" source="3WOV2BCKVk76SARKrsxa-5" target="4BHLoPZqxFKhShOrZBmn-12" edge="1">
          <mxGeometry relative="1" as="geometry">
            <Array as="points">
              <mxPoint x="310" y="654" />
              <mxPoint x="310" y="630" />
              <mxPoint x="350" y="630" />
              <mxPoint x="350" y="575" />
            </Array>
          </mxGeometry>
        </mxCell>
        <object label="BPK 311" Code="311" Department="BPK" Units="3" Course="Applied Human Nutrition" id="vxXemIkT0cI58F5_u51Y-1">
          <mxCell style="html=1;dashed=0;whitespace=wrap;shape=mxgraph.dfd.start;fillColor=#dae8fc;strokeColor=#6c8ebf;sketch=1;curveFitting=1;jiggle=2;" vertex="1" parent="1">
            <mxGeometry x="553" y="321" width="80" height="30" as="geometry" />
          </mxCell>
        </object>
      </root>
    </mxGraphModel>
  </diagram>
</mxfile>
